<svg width="103" height="80" viewBox="0 0 103 80" fill="none" xmlns="http://www.w3.org/2000/svg">
<g clip-path="url(#clip0)">
<path d="M64.9372 40.8701L66.2516 43.898C67.4936 46.7596 70.3214 48.6121 73.4482 48.6121L69.9392 40.8701H64.9372ZM59.9352 29.2562H65.0123L55.8305 8.78369L53.4408 14.2187L59.9352 29.2562ZM56.1279 29.2562L51.5748 18.6109L46.9461 29.2562H56.1279ZM43.4371 37.3712L59.6377 37.4458L57.621 32.7554H45.4534L43.4371 37.3712ZM38.211 29.2562H43.1393L49.6336 14.2187L47.2443 8.70953L38.211 29.2562ZM36.7603 44.0051L38.1373 40.8701H33.0604L29.551 48.6873H29.5775C32.6916 48.6873 35.5108 46.8495 36.7603 44.0051ZM72.2534 37.4458L78.7477 52.1858H74.1482C69.1952 52.1858 64.7195 49.2404 62.7722 44.6988L61.13 40.8701H41.8693L40.2279 44.6976C38.2809 49.2397 33.8049 52.1858 28.8514 52.1858H24.2515L30.8212 37.3712H39.6299L41.6451 32.7554H32.836L47.3195 -0.000717163L51.5748 9.90066L55.7554 0.148754L70.3877 32.7554H61.4282L63.4441 37.4458H72.2534Z" fill="white"/>
<path d="M4.85748 60.359L3.05419 64.909H6.43974L4.85748 60.359ZM6.56881 65.276H2.9624L2.29996 66.909C2.27526 66.958 2.2507 67.0134 2.22644 67.0741C2.20174 67.1357 2.17718 67.1965 2.15277 67.2577C2.10366 67.3677 2.05754 67.4961 2.01471 67.6429C1.97159 67.7897 1.95033 67.9487 1.95033 68.12C1.95033 68.365 2.01771 68.5635 2.15277 68.7164C2.28753 68.8693 2.61277 68.9583 3.12801 68.9825V69.3494H0V68.9825C0.331069 68.9583 0.616317 68.8421 0.855597 68.6338C1.09473 68.4258 1.27561 68.1996 1.3984 67.9548C1.4228 67.9182 1.44436 67.8815 1.46278 67.8448C1.48105 67.8081 1.49647 67.7715 1.50875 67.7348L5.57503 57.331H5.90638L10.1014 68.9825H11.3526V69.3494H6.2927V68.9825H7.93023L6.56881 65.276Z" fill="white"/>
<path d="M18.1049 64.3952C18.1049 63.5878 17.9914 62.9858 17.7646 62.5878C17.5376 62.1906 17.2829 61.9243 17.0009 61.7897C16.8907 61.7412 16.783 61.7045 16.679 61.6795C16.5745 61.6552 16.4734 61.6429 16.3753 61.6429C15.9215 61.6429 15.529 61.787 15.1979 62.074C14.8665 62.3619 14.6825 62.6768 14.6457 63.0191C14.6333 63.0439 14.6274 63.0679 14.6274 63.0924C14.6274 63.1169 14.6274 63.1413 14.6274 63.1659V67.2576C14.6274 67.8202 14.8143 68.2885 15.1885 68.6612C15.5627 69.0346 15.9827 69.2209 16.4488 69.2209C16.5346 69.2209 16.6266 69.2147 16.725 69.2025C16.823 69.1907 16.921 69.1657 17.0193 69.1292C17.2888 69.0189 17.5376 68.7988 17.7646 68.4686C17.9914 68.1382 18.1049 67.594 18.1049 66.8356V64.3952ZM14.6274 69.3493H11.665V69.0373H12.8241V57.6978H11.665V57.3859H13.4866C13.7317 57.3859 13.9312 57.3803 14.0846 57.3677C14.2378 57.3555 14.3819 57.3371 14.5169 57.3126C14.5415 57.3008 14.5629 57.2912 14.5813 57.2851C14.5999 57.279 14.615 57.2759 14.6274 57.2759V62.1933C14.6643 62.1443 14.7101 62.0863 14.7653 62.0191C14.8206 61.9517 14.8911 61.8814 14.9771 61.8084C15.1118 61.6856 15.2897 61.5756 15.5106 61.4778C15.7313 61.3798 16.0074 61.331 16.3384 61.331C17.3811 61.331 18.2797 61.7316 19.0342 62.5327C19.7884 63.3344 20.1657 64.2973 20.1657 65.4227C20.1657 66.6585 19.7852 67.6494 19.0249 68.3951C18.2642 69.1414 17.4302 69.5202 16.5225 69.5332C16.5101 69.5332 16.5009 69.5332 16.495 69.5332C16.4885 69.5332 16.4794 69.5332 16.4674 69.5332C16.357 69.5332 16.2065 69.5144 16.0165 69.4777C15.8262 69.4411 15.6331 69.3676 15.4369 69.2576C15.2897 69.1596 15.1453 69.0405 15.0045 68.8998C14.8634 68.7591 14.7378 68.5786 14.6274 68.3585V69.3493Z" fill="white"/>
<path d="M25.8514 65.2392C24.9067 65.2151 24.2106 65.3436 23.763 65.6246C23.3152 65.9059 23.0916 66.5362 23.0916 67.5144C23.0916 68.0164 23.223 68.3527 23.487 68.5236C23.7507 68.6949 24.042 68.7805 24.3611 68.7805C24.4466 68.7805 24.5451 68.7655 24.6553 68.7347C24.7658 68.7045 24.8761 68.6582 24.9867 68.597C25.1214 68.5359 25.2533 68.4595 25.3821 68.3676C25.5111 68.2759 25.6184 68.1872 25.7042 68.1015C25.753 68.0405 25.79 67.9858 25.8147 67.9364C25.839 67.8878 25.8514 67.8386 25.8514 67.7896V65.2392ZM29.2185 68.6154C29.1326 68.7376 29.0407 68.8482 28.9424 68.9456C28.8442 69.0434 28.7461 69.123 28.6481 69.1841C28.3905 69.3554 28.1421 69.4559 27.9029 69.4869C27.6638 69.5171 27.4889 69.5332 27.3785 69.5332C26.9982 69.5332 26.7007 69.4472 26.4863 69.2759C26.2714 69.1046 26.1091 68.915 25.9986 68.707C25.9618 68.6459 25.9311 68.5879 25.9065 68.5328C25.882 68.4777 25.8635 68.4196 25.8514 68.3585C25.2502 68.8844 24.7383 69.2117 24.3151 69.3402C23.8918 69.4686 23.5083 69.5332 23.1651 69.5332C22.478 69.5332 21.9507 69.3402 21.5827 68.9548C21.2148 68.5695 21.0308 68.0959 21.0308 67.5327C21.0308 66.6521 21.4199 65.9976 22.199 65.5695C22.978 65.1414 23.9932 64.9272 25.2442 64.9272C25.3423 64.9272 25.4435 64.9272 25.5477 64.9272C25.6518 64.9272 25.753 64.9334 25.8514 64.9461V62.8905C25.8514 62.8294 25.8514 62.7652 25.8514 62.6979C25.8514 62.631 25.845 62.5668 25.833 62.5053C25.7961 62.285 25.6979 62.0897 25.5386 61.9181C25.3791 61.7469 25.0723 61.6613 24.6186 61.6613C24.3242 61.6613 24.0544 61.6952 23.8091 61.7621C23.5636 61.8294 23.4409 61.9304 23.4409 62.0649C23.4409 62.1016 23.4439 62.1417 23.4504 62.1842C23.4563 62.2269 23.4655 62.2668 23.4779 62.3034C23.49 62.3524 23.5023 62.3982 23.5148 62.441C23.5267 62.4839 23.545 62.5236 23.5698 62.5604C23.582 62.5852 23.5911 62.6062 23.5974 62.6246C23.6034 62.6429 23.6125 62.6647 23.625 62.6888C23.6371 62.7136 23.6495 62.7376 23.6618 62.7621C23.6741 62.7866 23.6923 62.8115 23.717 62.8355C23.7539 62.8966 23.7874 62.964 23.8183 63.0375C23.8487 63.1108 23.8642 63.1963 23.8642 63.2943C23.8642 63.5878 23.769 63.8508 23.5791 64.0833C23.3887 64.3156 23.1099 64.4318 22.7418 64.4318C22.3983 64.4318 22.1223 64.3191 21.9139 64.0924C21.7052 63.8662 21.6011 63.5577 21.6011 63.1659C21.6011 62.6153 21.9106 62.1723 22.5302 61.8355C23.1495 61.4992 23.8518 61.331 24.637 61.331C25.753 61.331 26.5074 61.4961 26.9003 61.8263C27.2926 62.1566 27.5257 62.5175 27.5993 62.9089C27.6238 63.0316 27.6389 63.1475 27.6454 63.2576C27.6514 63.3676 27.6545 63.4778 27.6545 63.5878V68.3585C27.6545 68.3951 27.6545 68.435 27.6545 68.4777C27.6545 68.5205 27.6605 68.5663 27.6729 68.6154C27.6975 68.7014 27.7373 68.7805 27.7924 68.8538C27.8477 68.9277 27.9426 68.964 28.0779 68.964C28.1267 68.964 28.1758 68.9582 28.2249 68.9456C28.274 68.9334 28.323 68.915 28.3722 68.8905C28.4457 68.8538 28.5222 68.805 28.6022 68.7438C28.6817 68.6827 28.7521 68.6219 28.8138 68.5602C28.8382 68.5236 28.8657 68.4899 28.8966 68.4595C28.927 68.4292 28.9487 68.4017 28.961 68.3769L29.2185 68.6154Z" fill="white"/>
<path d="M30.0463 61.8448H29.2183V61.5328H33.1926V61.8448H32.0335L34.7382 67.4961L36.2102 63.3311C36.2346 63.2454 36.259 63.1506 36.2838 63.0466C36.3082 62.9427 36.3204 62.8356 36.3204 62.7256C36.3204 62.5053 36.2498 62.3035 36.109 62.1201C35.9678 61.9366 35.6886 61.8448 35.2717 61.8448H35.1061V61.5328H38.0684V61.8448C37.725 61.8697 37.4582 61.9915 37.2681 62.2118C37.0778 62.4319 36.9215 62.6705 36.7988 62.9273C36.7621 63.013 36.7253 63.1017 36.6885 63.1939C36.6518 63.2851 36.621 63.3677 36.5965 63.4411L33.3398 72.1751C33.1926 72.5665 32.9931 72.86 32.7417 73.0558C32.4902 73.2511 32.2235 73.38 31.9414 73.441C31.8798 73.453 31.8154 73.4625 31.7482 73.4687C31.6807 73.4748 31.6163 73.4778 31.5551 73.4778C30.9905 73.4778 30.5489 73.3494 30.2303 73.0925C29.9112 72.8355 29.7335 72.5542 29.6967 72.2484C29.6967 72.2362 29.6967 72.2209 29.6967 72.2026C29.6967 72.1842 29.6967 72.169 29.6967 72.1567C29.6967 71.8139 29.7886 71.5145 29.9725 71.2577C30.1568 71.0007 30.3895 70.8723 30.6718 70.8723C30.733 70.8723 30.7974 70.875 30.8651 70.8815C30.9323 70.8872 31.003 70.9029 31.0766 70.9274C31.2484 70.9763 31.4046 71.0651 31.5457 71.1935C31.6867 71.3219 31.7575 71.5084 31.7575 71.7531C31.7575 71.8139 31.7511 71.8784 31.7391 71.9457C31.7268 72.013 31.7082 72.0771 31.6838 72.1384C31.6716 72.1751 31.6591 72.2118 31.647 72.2484C31.6347 72.2852 31.6223 72.3219 31.6103 72.3586C31.5977 72.3829 31.5886 72.4136 31.5826 72.4503C31.5761 72.487 31.5735 72.5236 31.5735 72.5604C31.5735 72.6579 31.6285 72.7347 31.7391 72.7897C31.8493 72.8448 32.0026 72.8723 32.1989 72.8723C32.334 72.8723 32.4535 72.8321 32.5578 72.753C32.6619 72.6731 32.7447 72.5849 32.8061 72.487C32.8551 72.4136 32.8951 72.3429 32.9257 72.276C32.9563 72.2087 32.9779 72.1567 32.9901 72.12L33.855 69.8815L30.0463 61.8448Z" fill="white"/>
<path d="M49.1266 60.359L47.3234 64.909H50.7089L49.1266 60.359ZM50.8377 65.276H47.2314L46.569 66.909C46.5445 66.958 46.5199 67.0134 46.4954 67.0741C46.4705 67.1357 46.4463 67.1965 46.4222 67.2577C46.3727 67.3677 46.3267 67.4961 46.2838 67.6429C46.2409 67.7897 46.2194 67.9487 46.2194 68.12C46.2194 68.365 46.2869 68.5635 46.4222 68.7164C46.5567 68.8693 46.8822 68.9583 47.397 68.9825V69.3494H44.269V68.9825C44.6006 68.9583 44.8858 68.8421 45.125 68.6338C45.3642 68.4258 45.5448 68.1996 45.6678 67.9548C45.692 67.9182 45.7134 67.8815 45.7322 67.8448C45.7506 67.8081 45.7656 67.7715 45.7778 67.7348L49.8442 57.331H50.1757L54.3701 68.9825H55.6217V69.3494H50.5617V68.9825H52.1993L50.8377 65.276Z" fill="white"/>
<path d="M62.374 64.3952C62.374 63.5878 62.2601 62.9858 62.0336 62.5878C61.8067 62.1906 61.5521 61.9243 61.27 61.7897C61.1596 61.7412 61.0523 61.7045 60.9484 61.6795C60.8437 61.6552 60.7422 61.6429 60.6444 61.6429C60.1906 61.6429 59.7984 61.787 59.4668 62.074C59.1356 62.3619 58.952 62.6768 58.9148 63.0191C58.9026 63.0439 58.8964 63.0679 58.8964 63.0924C58.8964 63.1169 58.8964 63.1413 58.8964 63.1659V67.2576C58.8964 67.8202 59.0831 68.2885 59.4576 68.6612C59.8314 69.0346 60.2515 69.2209 60.718 69.2209C60.8039 69.2209 60.8959 69.2147 60.994 69.2025C61.0921 69.1907 61.1899 69.1657 61.2884 69.1292C61.5579 69.0189 61.8067 68.7988 62.0336 68.4686C62.2601 68.1382 62.374 67.594 62.374 66.8356V64.3952ZM58.8964 69.3493H55.9341V69.0373H57.0933V57.6978H55.9341V57.3859H57.7557C58.001 57.3859 58.2003 57.3803 58.3536 57.3677C58.5066 57.3555 58.6507 57.3371 58.786 57.3126C58.8102 57.3008 58.832 57.2912 58.8504 57.2851C58.8688 57.279 58.8842 57.2759 58.8964 57.2759V62.1933C58.9332 62.1443 58.9792 62.0863 59.0344 62.0191C59.0896 61.9517 59.1602 61.8814 59.246 61.8084C59.381 61.6856 59.5592 61.5756 59.7796 61.4778C60.0004 61.3798 60.2764 61.331 60.6076 61.331C61.6503 61.331 62.5488 61.7316 63.3032 62.5327C64.0576 63.3344 64.4348 64.2973 64.4348 65.4227C64.4348 66.6585 64.0545 67.6494 63.294 68.3951C62.5331 69.1414 61.6993 69.5202 60.7916 69.5332C60.7793 69.5332 60.7701 69.5332 60.764 69.5332C60.7575 69.5332 60.7487 69.5332 60.7364 69.5332C60.626 69.5332 60.4757 69.5144 60.2856 69.4777C60.0955 69.4411 59.9023 69.3676 59.706 69.2576C59.5592 69.1596 59.4147 69.0405 59.2736 68.8998C59.1326 68.7591 59.0068 68.5786 58.8964 68.3585V69.3493Z" fill="white"/>
<path d="M66.5047 57.8447C66.7071 57.6369 66.9494 57.533 67.2315 57.533C67.2802 57.533 67.3262 57.5364 67.3695 57.5421C67.4124 57.5485 67.4584 57.5573 67.5075 57.5695C67.6915 57.6311 67.8632 57.7439 68.0227 57.9091C68.1821 58.0741 68.2619 58.2914 68.2619 58.5604C68.2619 58.8299 68.1821 59.0466 68.0227 59.2122C67.8632 59.3769 67.6915 59.4901 67.5075 59.5512C67.4584 59.5634 67.4124 59.5727 67.3695 59.5788C67.3262 59.5849 67.2802 59.5879 67.2315 59.5879C66.9494 59.5879 66.7071 59.484 66.5047 59.276C66.3023 59.0684 66.2011 58.8299 66.2011 58.5604C66.2011 58.2914 66.3023 58.0527 66.5047 57.8447ZM66.3667 69.0374V61.8448H65.2075V61.5328H67.0291C67.1146 61.5328 67.1916 61.5328 67.2587 61.5328C67.3262 61.5328 67.3906 61.5328 67.4523 61.5328C67.55 61.521 67.6547 61.5085 67.7651 61.4962C67.8755 61.4843 68.01 61.4659 68.1699 61.4411V69.0374H69.3291V69.3494H65.2075V69.0374H66.3667Z" fill="white"/>
<path d="M70.0464 66.964H70.304C70.5248 67.6001 70.884 68.1353 71.3804 68.5695C71.8772 69.0042 72.4629 69.2209 73.1375 69.2209C73.6282 69.2209 74.0453 69.1199 74.3887 68.9182C74.7322 68.7163 74.9039 68.4379 74.9039 68.0836C74.9039 67.9858 74.8978 67.8783 74.8855 67.7621C74.8733 67.6459 74.8426 67.5266 74.7939 67.4043C74.7322 67.2331 74.6126 67.0649 74.4347 66.8998C74.2569 66.7346 73.9839 66.6031 73.6159 66.5053L72.1259 66.0833C71.4267 65.8753 70.9388 65.5604 70.6628 65.1383C70.3872 64.7163 70.2488 64.2301 70.2488 63.6795C70.2488 63.0679 70.4021 62.594 70.7088 62.2575C71.0154 61.9211 71.3528 61.6795 71.7208 61.5327C71.8925 61.4594 72.0673 61.4078 72.2452 61.3768C72.423 61.3462 72.579 61.331 72.7144 61.331C72.947 61.331 73.159 61.3494 73.3491 61.386C73.5393 61.4227 73.7018 61.4658 73.8371 61.5144C73.9103 61.5389 73.9717 61.5633 74.0207 61.5878C74.0698 61.6126 74.1127 61.631 74.1495 61.6429C74.1741 61.6552 74.1955 61.6647 74.2139 61.6704C74.2323 61.6768 74.2538 61.6856 74.2783 61.6979C74.3155 61.7106 74.3489 61.7228 74.3799 61.7346C74.4102 61.7469 74.4443 61.7594 74.4807 61.7714C74.5053 61.7714 74.5329 61.7748 74.5635 61.7805C74.5942 61.787 74.6214 61.7897 74.6463 61.7897C74.7445 61.7897 74.8242 61.7748 74.8855 61.7437C74.9469 61.7133 74.9959 61.6795 75.0331 61.6429C75.0573 61.6185 75.0756 61.5969 75.0879 61.5787C75.1002 61.5604 75.1125 61.545 75.1247 61.5327H75.3639V63.6979H75.1247C74.8181 62.9272 74.4623 62.3891 74.0575 62.0833C73.6527 61.7775 73.2234 61.6246 72.7695 61.6246C72.2298 61.6246 71.825 61.7469 71.5552 61.9914C71.2853 62.2365 71.1442 62.5053 71.132 62.7988C71.132 62.8115 71.132 62.8202 71.132 62.8263C71.132 62.8324 71.132 62.842 71.132 62.8539C71.132 63.1475 71.1994 63.3833 71.3344 63.5603C71.4693 63.7376 71.6165 63.8692 71.7763 63.9549C71.8496 64.0042 71.9201 64.0434 71.9876 64.074C72.055 64.1047 72.1194 64.1264 72.1808 64.1383L74.3519 64.8172C74.8671 64.9765 75.2688 65.2208 75.5571 65.5511C75.8454 65.8814 75.9895 66.3284 75.9895 66.8905C75.9895 67.7347 75.7442 68.3554 75.2535 68.753C74.7629 69.1509 74.2293 69.3917 73.6527 69.4777C73.5423 69.5019 73.4319 69.5171 73.3215 69.5236C73.2111 69.5298 73.1011 69.5332 72.9907 69.5332C72.7205 69.5332 72.4813 69.5053 72.2731 69.4502C72.0642 69.3951 71.8741 69.3374 71.7024 69.2759C71.5429 69.2025 71.4172 69.1382 71.3252 69.0832C71.2336 69.0282 71.1442 68.9946 71.0588 68.9824C71.0461 68.9704 71.0308 68.964 71.0124 68.964C70.9944 68.964 70.9786 68.964 70.9664 68.964C70.93 68.964 70.8897 68.967 70.8468 68.9731C70.8038 68.9792 70.764 68.9888 70.7272 69.0007C70.6413 69.0373 70.562 69.0893 70.488 69.1566C70.4144 69.224 70.3531 69.3069 70.304 69.4043L70.0464 69.4227V66.964Z" fill="white"/>
<path d="M76.707 57.6979V57.386H78.547C78.7061 57.386 78.8506 57.383 78.9794 57.3769C79.1082 57.3708 79.2339 57.362 79.3562 57.3494C79.4053 57.3372 79.4578 57.3249 79.5126 57.3127C79.5682 57.3009 79.6203 57.2882 79.669 57.276V62.597C80.1719 62.0714 80.6166 61.7286 81.0034 61.5695C81.3898 61.4105 81.7666 61.325 82.1346 61.3127C82.1595 61.3127 82.1806 61.3127 82.199 61.3127C82.2178 61.3127 82.2388 61.3127 82.2634 61.3127C82.8771 61.3127 83.4287 61.4595 83.9193 61.7531C84.41 62.0471 84.6553 62.5176 84.6553 63.166V69.0374H85.8149V69.3494H81.8222V69.0374H82.8522V63.166V63.1476C82.8522 63.0986 82.8491 63.013 82.8433 62.8906C82.8368 62.7683 82.8092 62.646 82.7605 62.5237C82.6988 62.3525 82.5858 62.1934 82.4198 62.0471C82.2546 61.8999 81.9996 61.8264 81.6562 61.8264C81.4726 61.8264 81.2115 61.8849 80.8746 62.0008C80.5369 62.117 80.1351 62.4625 79.669 63.0376V69.0374H80.6998V69.3494H76.707V69.0374H77.8658V57.6979H76.707Z" fill="white"/>
<path d="M91.8309 64.7071C91.855 63.8757 91.7906 63.1566 91.6377 62.5511C91.4843 61.9456 91.0458 61.6429 90.3221 61.6429C89.856 61.6429 89.5064 61.7498 89.2733 61.964C89.0402 62.1781 88.8746 62.4136 88.7765 62.6704C88.7029 62.842 88.6569 63.0068 88.6385 63.1659C88.6201 63.3249 88.6113 63.4533 88.6113 63.5511L88.5925 64.7071H91.8309ZM93.8184 67.3676C93.3642 68.0772 92.8735 68.6154 92.3461 68.9824C91.8186 69.3493 91.1991 69.5332 90.4877 69.5332C89.4696 69.5332 88.5557 69.1784 87.7461 68.4686C86.9365 67.7594 86.5317 66.7499 86.5317 65.4411C86.5317 64.3406 86.8844 63.3798 87.5901 62.5604C88.2947 61.7412 89.1748 61.331 90.2301 61.331C90.4264 61.331 90.6468 61.3494 90.8925 61.386C91.1374 61.4227 91.3831 61.49 91.6285 61.5878C92.1191 61.7836 92.5787 62.1417 93.0084 62.6612C93.4374 63.1811 93.6831 63.9608 93.7444 65.0007H88.5925L88.6113 66.2667C88.6113 66.3769 88.6136 66.493 88.6201 66.6153C88.6262 66.7376 88.6354 66.8601 88.6477 66.9824C88.6964 67.5327 88.8375 68.0346 89.0709 68.4869C89.3036 68.9398 89.7517 69.1657 90.4141 69.1657C90.8434 69.1657 91.3218 69.0405 91.8493 68.7896C92.3767 68.5393 92.9283 67.998 93.5052 67.1659L93.8184 67.3676Z" fill="white"/>
<path d="M98.4546 61.5329V61.8448H97.075L99.2646 67.1842L100.939 63.2393C100.951 63.2148 100.963 63.1844 100.975 63.1476C100.988 63.1109 101 63.0681 101.012 63.0192C101.012 62.9947 101.015 62.9764 101.022 62.9641C101.027 62.9523 101.031 62.934 101.031 62.909C101.042 62.8602 101.055 62.8082 101.068 62.7531C101.08 62.698 101.086 62.6526 101.086 62.6155C101.086 62.5789 101.083 62.5329 101.077 62.4779C101.07 62.4228 101.055 62.3709 101.031 62.3219C100.981 62.2001 100.886 62.0899 100.745 61.9916C100.604 61.8938 100.374 61.8448 100.055 61.8448V61.5329H103V61.8448C102.656 61.8697 102.38 61.9641 102.172 62.1293C101.963 62.2944 101.804 62.4809 101.693 62.6889C101.631 62.7867 101.579 62.8847 101.537 62.9825C101.494 63.0808 101.454 63.166 101.417 63.2393L98.6938 69.5513H98.2522L95.0326 61.8448H94.2227V61.5329H98.4546Z" fill="white"/>
<path d="M38.1478 77.5278C38.3339 77.5991 38.5129 77.6346 38.6843 77.6346H38.7272C38.8993 77.6346 39.0599 77.5883 39.2106 77.4957C39.7327 77.1742 39.9937 76.607 39.9937 75.7936C39.9937 75.4584 39.8937 75.2905 39.6932 75.2905C39.393 75.2905 39.0672 75.6081 38.7165 76.2431C38.4807 76.6643 38.2908 77.0926 38.1478 77.5278ZM42.5486 76.8318L42.3765 77.3242C41.8398 78.1021 41.2246 78.7302 40.5304 79.208C40.1942 79.4435 39.8043 79.6361 39.3608 79.7859C38.9457 79.9285 38.4983 80 38.019 80C37.2033 80 36.7954 79.6575 36.7954 78.9725C36.7954 78.5589 36.9171 78.0987 37.1603 77.5922C37.3678 77.1568 37.629 76.7534 37.9439 76.3822C38.7525 75.4263 39.5786 74.9485 40.4234 74.9485C40.8455 74.9485 41.0563 75.1266 41.0563 75.4832C41.0563 75.9615 40.7523 76.5072 40.1443 77.1208C39.5 77.7702 38.8349 78.0948 38.1478 78.0948H38.019C37.9902 78.2661 37.9759 78.4087 37.9759 78.5229C37.9759 79.1296 38.3124 79.4327 38.9852 79.4327C39.7721 79.4327 40.6089 79.0012 41.4963 78.1377C41.7754 77.8738 42.1261 77.4384 42.5486 76.8318Z" fill="white"/>
<path d="M45.5106 77.5062C45.5106 77.9629 45.5891 78.3053 45.7467 78.5337C46.0112 78.2271 46.2278 77.8613 46.396 77.4366C46.5643 77.0122 46.6483 76.6035 46.6483 76.211C46.6483 76.0397 46.6303 75.9078 46.5946 75.815C46.5586 75.7225 46.4727 75.6758 46.337 75.6758C46.1082 75.6758 45.9077 75.8936 45.7359 76.3288C45.5857 76.714 45.5106 77.0745 45.5106 77.4097V77.5062ZM49.0847 76.789L48.9237 77.2813C48.4012 78.0664 47.8362 78.6231 47.2279 78.951C46.9844 79.0794 46.7341 79.1438 46.4765 79.1438C46.2189 79.1438 45.9755 79.0615 45.7467 78.8979C45.0598 79.6322 44.3943 80 43.7503 80C43.3493 80 43.0205 79.8822 42.7629 79.6472C42.5053 79.4114 42.3765 79.0936 42.3765 78.6942C42.3765 78.3092 42.5946 77.7775 43.0312 77.0994C43.2673 76.7213 43.4103 76.4824 43.4605 76.3822C43.6108 76.0899 43.6859 75.8257 43.6859 75.5902C43.6859 75.4476 43.6215 75.3585 43.4927 75.3227C43.4356 75.3011 43.3137 75.2905 43.1278 75.2905L43.1922 75.0551L45.3281 74.9485C44.9202 75.4403 44.5265 76.0076 44.1474 76.6498C43.7181 77.3922 43.5034 78.0519 43.5034 78.63C43.5034 78.851 43.5678 79.0473 43.6966 79.2186C43.8327 79.4114 44.0079 79.5077 44.2226 79.5077C44.6304 79.5077 45.0812 79.2507 45.575 78.737C45.3457 78.359 45.2315 77.938 45.2315 77.4739C45.2315 77.0531 45.3208 76.6322 45.4998 76.211C45.693 75.7546 45.9468 75.4048 46.2619 75.1621C46.4478 75.0195 46.641 74.9485 46.8415 74.9485C47.242 74.9485 47.4425 75.2229 47.4425 75.7721C47.4425 76.2431 47.2708 76.7748 46.9273 77.367C46.6624 77.8165 46.3263 78.2732 45.9184 78.737C46.0756 78.8657 46.2619 78.9301 46.4765 78.9301C46.8415 78.9301 47.2351 78.7657 47.6572 78.4373C47.9221 78.2232 48.2368 77.8914 48.6017 77.4418C48.752 77.2565 48.913 77.0386 49.0847 76.789Z" fill="white"/>
<path d="M50.0828 77.5278C50.2688 77.5991 50.4478 77.6346 50.6195 77.6346H50.6624C50.8342 77.6346 50.9952 77.5883 51.1454 77.4957C51.6675 77.1742 51.9286 76.607 51.9286 75.7936C51.9286 75.4584 51.8285 75.2905 51.628 75.2905C51.3279 75.2905 51.0021 75.6081 50.6517 76.2431C50.4156 76.6643 50.2258 77.0926 50.0828 77.5278ZM54.4831 76.8318L54.3113 77.3242C53.775 78.1021 53.1594 78.7302 52.4656 79.208C52.129 79.4435 51.7392 79.6361 51.2957 79.7859C50.8806 79.9285 50.4332 80 49.954 80C49.1383 80 48.7305 79.6575 48.7305 78.9725C48.7305 78.5589 48.852 78.0987 49.0954 77.5922C49.3028 77.1568 49.5638 76.7534 49.8789 76.3822C50.6874 75.4263 51.5134 74.9485 52.3579 74.9485C52.7803 74.9485 52.9915 75.1266 52.9915 75.4832C52.9915 75.9615 52.6872 76.5072 52.0792 77.1208C51.4348 77.7702 50.7698 78.0948 50.0828 78.0948H49.954C49.9253 78.2661 49.9111 78.4087 49.9111 78.5229C49.9111 79.1296 50.2473 79.4327 50.92 79.4327C51.707 79.4327 52.5442 79.0012 53.4312 78.1377C53.7106 77.8738 54.061 77.4384 54.4831 76.8318Z" fill="white"/>
<path d="M55.7067 79.8287L54.1719 80C54.2934 79.7432 54.4973 79.1651 54.7841 78.2661L55.1379 77.1529C55.3594 76.4538 55.4706 75.9507 55.4706 75.6437C55.4706 75.4082 55.2774 75.2905 54.891 75.2905L54.9554 75.0551L57.0372 74.9485C56.915 75.1904 56.7195 75.7037 56.4531 76.4878L55.3794 79.7202L55.5189 79.7217C55.5837 79.5359 55.6803 79.2546 55.8094 78.8762C56.0674 78.1414 56.3821 77.4668 56.7547 76.8532C57.2278 76.0612 57.7184 75.5079 58.2271 75.1942C58.492 75.0301 58.786 74.9485 59.1084 74.9485C59.5741 74.9485 59.8068 75.1193 59.8068 75.4618C59.8068 75.6544 59.7707 75.8615 59.6994 76.0826L58.8837 78.5871C58.8193 78.7871 58.7871 78.9583 58.7871 79.1009C58.7871 79.2867 58.855 79.3793 58.9911 79.3793C59.3774 79.3793 59.8746 79.0333 60.483 78.3413C60.726 78.0627 60.9514 77.7809 61.1588 77.4957L61.6314 76.8318L61.4597 77.3242C60.7513 78.4445 59.982 79.2438 59.1521 79.7217C58.8301 79.9071 58.5008 80 58.1646 80C58.0143 80 57.8855 79.9534 57.7782 79.8608C57.6709 79.7684 57.6172 79.6503 57.6172 79.5077C57.6172 79.3222 57.6529 79.1154 57.7242 78.8868L58.4755 76.4679C58.5759 76.1467 58.6261 75.9399 58.6261 75.847C58.6261 75.6618 58.5368 75.5692 58.3578 75.5692C58.0642 75.5692 57.7495 75.7829 57.4133 76.211C57.1484 76.5535 56.8406 77.11 56.4902 77.8807L56.2648 78.3624C56.1219 78.6763 56.0072 78.9622 55.9214 79.2186L55.7067 79.8287Z" fill="white"/>
<path d="M66.2038 76.789L66.032 77.2813L65.3666 78.2019C64.4937 79.4006 63.5492 80 62.533 80C62.2827 80 62.0876 79.9147 61.9481 79.7435C61.8085 79.5729 61.7388 79.3593 61.7388 79.1032C61.7388 78.8039 61.8105 78.4484 61.9538 78.0355L62.8443 75.4511H62.7051C62.4617 75.4511 62.272 75.4709 62.1359 75.5099C62.0857 75.5229 62.0247 75.5427 61.9538 75.5692L62.211 75.1193H62.9516L63.4131 73.7921L64.5294 73.4924L64.0357 75.1193H65.0231L64.7441 75.505C64.5148 75.469 64.2864 75.4511 64.0571 75.4511H63.9069L63.0697 78.1193C62.9696 78.4396 62.9194 78.6601 62.9194 78.7814C62.9194 79.1086 63.0843 79.2722 63.4131 79.2722C63.9 79.2722 64.4401 78.9583 65.0339 78.3303C65.3202 78.0233 65.71 77.5099 66.2038 76.789Z" fill="white"/>
</g>
<defs>
<clipPath id="clip0">
<rect width="103" height="80" fill="white"/>
</clipPath>
</defs>
</svg>
